<svg xmlns="http://www.w3.org/2000/svg" version="1.1" xmlns:xlink="http://www.w3.org/1999/xlink" xmlns:svgjs="http://svgjs.dev/svgjs" width="1000" height="1000" viewBox="0 0 1000 1000"><rect width="1000" height="1000" fill="#ffffff"></rect><g transform="matrix(0.7,0,0,0.7,149.57575769240646,386.8006875397957)"><svg viewBox="0 0 396 128" data-background-color="#ffffff" preserveAspectRatio="xMidYMid meet" height="323" width="1000" xmlns="http://www.w3.org/2000/svg" xmlns:xlink="http://www.w3.org/1999/xlink"><g id="tight-bounds" transform="matrix(1,0,0,1,0.24000006598993195,0.0845289469532986)"><svg viewBox="0 0 395.52 127.83094168389744" height="127.83094168389744" width="395.52"><g><svg viewBox="0 0 692.8123111824776 223.91497307001796" height="127.83094168389744" width="395.52"><g><svg viewBox="0 0 395.52000000000004 223.91497307001796" height="223.91497307001796" width="395.52000000000004"><g><svg viewBox="0 0 395.52000000000004 223.91497307001796" height="223.91497307001796" width="395.52000000000004"><g><svg viewBox="0 0 395.52000000000004 223.91497307001796" height="223.91497307001796" width="395.52000000000004"><g transform="matrix(1,0,0,1,0,0)"><svg width="395.52000000000004" viewBox="1.2000000476837158 -36.040000915527344 81.58000183105469 46.20000076293945" height="223.91497307001796" data-palette-color="#44a0d8"><path d="M28.69-35.55L28.69-31.69 17.26-31.69 17.26 0 12.6 0 12.6-31.69 1.2-31.69 1.2-35.55 28.69-35.55ZM44.19-26.56L44.19-22.36Q43.16-22.53 41.97-22.53L41.97-22.53Q37.52-22.53 35.94-18.75L35.94-18.75 35.94 0 31.42 0 31.42-26.42 35.81-26.42 35.89-23.36Q38.11-26.9 42.19-26.9L42.19-26.9Q43.5-26.9 44.19-26.56L44.19-26.56ZM53.24-26.42L53.24 0 48.73 0 48.73-26.42 53.24-26.42ZM48.36-33.42L48.36-33.42Q48.36-34.52 49.03-35.28 49.7-36.04 51.02-36.04 52.34-36.04 53.02-35.28 53.71-34.52 53.71-33.42 53.71-32.32 53.02-31.59 52.34-30.86 51.02-30.86 49.7-30.86 49.03-31.59 48.36-32.32 48.36-33.42ZM82.78-13.33L82.78-12.92Q82.78-6.88 80.02-3.2 77.26 0.49 72.55 0.49L72.55 0.49Q67.74 0.49 64.98-2.56L64.98-2.56 64.98 10.16 60.47 10.16 60.47-26.42 64.59-26.42 64.81-23.49Q67.57-26.9 72.48-26.9L72.48-26.9Q77.24-26.9 80.01-23.32 82.78-19.73 82.78-13.33L82.78-13.33ZM78.26-13.43L78.26-13.43Q78.26-17.9 76.36-20.48 74.46-23.07 71.14-23.07L71.14-23.07Q67.03-23.07 64.98-19.43L64.98-19.43 64.98-6.81Q67.01-3.2 71.18-3.2L71.18-3.2Q74.43-3.2 76.35-5.77 78.26-8.35 78.26-13.43Z" opacity="1" transform="matrix(1,0,0,1,0,0)" fill="#000000" class="undefined-text-0" data-fill-palette-color="primary" id="text-0"></path></svg></g></svg></g></svg></g></svg></g><g transform="matrix(1,0,0,1,448.3809511824776,69.82985069769578)"><svg viewBox="0 0 244.43136 84.2552716746264" height="84.2552716746264" width="244.43136"><g><svg version="1.0" xmlns="http://www.w3.org/2000/svg" xmlns:xlink="http://www.w3.org/1999/xlink" x="0" y="0" viewBox="0 0 100.00035095214844 34.47003173828125" enable-background="new 0 0 100 34.47" xml:space="preserve" width="244.43136" height="84.2552716746264" class="icon-icon-0" data-fill-palette-color="accent" id="icon-0"><path d="M99.925 5.721c-0.716-2.606-7.372-2.83-10.05-1.938-9.739 3.239-19.479 6.479-29.22 9.719L26.845 0l-3.568 3.803 14.468 17.376c-9.326 3.224-26.407 9.177-29.507 10.207-2.669 0.889 17.247 3.715 21.813 2.956 0 0 35.082-11.443 50.593-16.604 3.987-1.326 7.976-2.652 11.963-3.979C95.275 12.872 100.702 8.549 99.925 5.721z" fill="#000000" data-fill-palette-color="accent"></path><polygon points="2.71,19.027 0,21.531 7.187,29.915 17.602,26.247 " fill="#000000" data-fill-palette-color="accent"></polygon></svg></g></svg></g></svg></g><defs></defs></svg><rect width="395.52" height="127.83094168389744" fill="none" stroke="none" visibility="hidden"></rect></g></svg></g></svg>